<svg xmlns="http://www.w3.org/2000/svg" id="svg154" width="1501.005" height="210" version="1.2" viewBox="0 0 1501.005 210"><style id="style148">.s0{fill:#005eb8}</style><g id="#005eb8ff" transform="matrix(0.97757971,0,0,0.97757971,4.902242,4.4228054)"><path id="Layer" fill-rule="evenodd" d="m 69.7,4.4 c 42.8,0.1 85.7,-0.1 128.6,0.1 19.2,0.6 39.2,2 56.4,11.2 10.7,5.6 18.3,16.5 19.4,28.5 1.8,17.8 -4,35.1 -9.4,51.7 -8.8,25.1 -17.9,51.2 -36.7,70.7 -15.7,16.9 -37.7,26.5 -60.1,30.8 -16.1,3.2 -32.5,3.9 -48.9,3.9 -39.6,0 -79.3,0 -118.9,0 Q 34.9,102.9 69.7,4.4 Z m 72.2,37 c -14.5,41 -29,82 -43.5,123 13.1,-0.4 26.7,1.3 39.4,-2.8 11,-3.7 17.9,-14 22.6,-24 8,-17.3 14.2,-35.3 20.1,-53.4 2.8,-9.9 6.7,-20 5.7,-30.5 -0.4,-5.5 -5.1,-9.7 -10.3,-10.7 -11.1,-2.6 -22.7,-1.3 -34,-1.6 z" class="s0"/><path id="path151" fill-rule="evenodd" d="m 409.5,1.1 c 23.1,-0.9 46.7,-0.8 69.3,4.7 13.1,3.2 26.4,9.6 33.8,21.4 7.6,12.3 7.3,27.5 5.1,41.2 -3.5,19.9 -10.3,39 -18.6,57.3 -10.4,22.9 -25.7,44.4 -47.4,57.8 -22.2,14 -48.5,19.2 -74.3,20.9 -22.6,1.2 -45.5,1.2 -67.8,-3.2 -15.2,-3.1 -31.4,-9.4 -39.6,-23.4 -9,-15.5 -6.3,-34.4 -2.6,-51 6.2,-23.9 15,-47.4 28.2,-68.3 C 307.9,39 325.6,22.7 347,14 366.7,5.5 388.2,2.3 409.5,1.1 Z m -5.4,35.5 c -12.7,2.8 -20.3,14.6 -25.5,25.6 -8.8,19 -15.4,39 -22.2,58.7 -3.5,11.9 -8.3,23.8 -8.1,36.3 -0.1,5.7 3.9,11.1 9.6,12.2 9.9,1.9 20.9,1.5 29.7,-3.9 9,-6 14,-16.1 18.5,-25.7 8,-18.5 14.6,-37.6 21,-56.6 3.3,-11 7.4,-21.9 7.6,-33.4 0.3,-5.3 -2.2,-11 -7.5,-12.7 -7.4,-2.5 -15.5,-2.1 -23.1,-0.5 z M 649.5,1.6 C 676,0 703.2,-0.3 729,6.8 c 14.5,4 29,13.3 33.9,28.3 6.1,19.2 0.8,39.7 -4.8,58.3 -10.3,32.1 -25.3,64.7 -52.8,85.4 -20.6,15.3 -46,22.2 -71.1,24.7 -24.4,2.3 -49.2,2.5 -73.4,-1.4 -17,-2.9 -35.8,-9.2 -44.7,-25.2 -9.4,-17.5 -5.1,-38.4 -0.4,-56.7 9.6,-32.7 23.4,-66.2 49.8,-89 23.2,-19.9 54.2,-27.5 84,-29.6 z m 1.7,34.9 c -7.9,1.6 -14.6,7 -19,13.6 -7.7,11.1 -12.2,24 -17.1,36.4 -6.8,19.1 -14.1,38.2 -18.9,58 -1.2,7.1 -3.3,16.1 2.4,21.9 6.8,5.2 16.2,4.2 24.2,3.3 11.1,-1.4 19.5,-10 24.6,-19.4 8.6,-15.6 14.1,-32.7 20.3,-49.4 4.9,-15 10.8,-29.9 13.2,-45.5 0.9,-6.1 0.8,-14.2 -5.5,-17.5 -7.5,-3.6 -16.3,-2.9 -24.2,-1.4 z M 852.7,6.2 c 29.9,-6.5 61,-6.8 91.4,-3.7 16.6,2.2 35.2,5.5 46.9,18.7 9.3,11.3 6.7,27.2 2.3,40 -26.5,0 -53.1,0 -79.7,0 1.8,-5.7 4.5,-12.1 1.7,-17.9 -2.2,-5.4 -8.4,-7.3 -13.7,-7.7 -10.9,-0.8 -22.8,1.6 -30.9,9.5 -4.4,4.2 -7.5,10.9 -5,16.9 2.7,5.8 8.7,8.8 14.3,11.2 24.8,9.8 52.2,12.4 75.7,25.6 11,6.1 20.4,17.3 19.8,30.5 -1.1,19.8 -12.9,37.9 -28.5,49.5 -21.6,15.9 -48.8,21.7 -75,24.6 -28.4,2.5 -57.2,2.7 -85.5,-1.6 -14.8,-2.8 -31.5,-7 -40.8,-20 -7.8,-12 -3.2,-26.8 1.4,-39 27.5,0 55,0 82.5,0 -1.9,5.9 -4.8,12.4 -2.6,18.6 2,5.5 8.1,7.7 13.3,8.4 12.6,1.8 26.8,-0.7 36.2,-9.8 4.6,-4.7 8.4,-12 5.4,-18.5 -2.9,-5.8 -9.1,-8.8 -14.8,-11.2 -23,-9 -48.4,-11.7 -70.3,-23.6 C 786.6,101.2 777.5,91.6 777,79.5 776.6,65.9 782.7,53 790.4,42.2 805.2,22.3 829,11.6 852.7,6.2 Z m 243.9,-1.7 c 35.7,-0.1 71.5,0 107.2,-0.1 q 5.2,98.5 10.3,196.9 -45.4,0 -90.8,0 c 1.1,-11.5 2.3,-23 3.4,-34.5 q -33.9,0 -67.8,0 -10.5,17.3 -20.9,34.5 c -30.3,0 -60.5,0 -90.8,0 C 997,135.7 1046.8,70.1 1096.6,4.5 Z m -14,123.8 q 23.8,0 47.7,0 c 2,-28.2 4.4,-56.3 6,-84.5 -18.2,28 -35.8,56.3 -53.7,84.5 z M 1294.2,4.5 c 31.8,-0.1 63.6,0 95.4,0 4.1,40.7 7.9,81.4 12.4,122.1 15.2,-40.5 28.9,-81.5 43.5,-122.1 26.6,-0.1 53.2,0 79.8,-0.1 -23.2,65.7 -46.4,131.3 -69.6,196.9 q -46.8,0 -93.5,0 c -4.8,-40.9 -9.1,-81.8 -14.2,-122.6 -15,40.7 -29,81.7 -43.6,122.6 -26.6,0.1 -53.2,0 -79.8,0 q 34.8,-98.4 69.6,-196.8 z" class="s0"/></g></svg>